<svg version="1.1" viewBox="0.0 0.0 157.50393700787401 100.0" fill="none" stroke="none" stroke-linecap="square" stroke-miterlimit="10" xmlns:xlink="http://www.w3.org/1999/xlink" xmlns="http://www.w3.org/2000/svg"><clipPath id="p.0"><path d="m0 0l157.50394 0l0 100.0l-157.50394 0l0 -100.0z" clip-rule="nonzero"/></clipPath><g clip-path="url(#p.0)"><path fill="#000000" fill-opacity="0.0" d="m0 0l157.50394 0l0 100.0l-157.50394 0z" fill-rule="evenodd"/><path fill="#000000" fill-opacity="0.0" d="m11.947507 18.818897l139.05511 0l0 53.889767l-139.05511 0z" fill-rule="evenodd"/><path fill="#434343" d="m28.510006 32.270145q1.15625 0 1.9375 0.328125q0.796875 0.3125 1.5625 0.890625q0.21875 0.15625 0.375 0.15625q0.1875 0 0.296875 -0.265625q0.109375 -0.265625 0.171875 -0.84375l0.421875 0q-0.078125 1.265625 -0.078125 4.515625l-0.421875 0q-0.15625 -1.28125 -0.453125 -2.0625q-0.28125 -0.78125 -0.953125 -1.328125q-0.4375 -0.421875 -1.09375 -0.65625q-0.65625 -0.25 -1.34375 -0.25q-1.3125 0 -2.1875 0.890625q-0.859375 0.875 -1.265625 2.34375q-0.40625 1.453125 -0.40625 3.1875q0 6.453125 3.578125 6.453125q0.828125 0 1.328125 -0.375q0.234375 -0.171875 0.34375 -0.390625q0.109375 -0.21875 0.109375 -0.578125l0 -1.828125q0 -0.875 -0.15625 -1.28125q-0.15625 -0.40625 -0.546875 -0.546875q-0.375 -0.15625 -1.1875 -0.1875l0 -0.375q1.15625 0.0625 3.1875 0.0625q1.65625 0 2.5 -0.0625l0 0.375q-0.375 0.03125 -0.546875 0.15625q-0.15625 0.109375 -0.234375 0.421875q-0.0625 0.3125 -0.0625 1.03125l0 3.6875l-0.359375 0q-0.03125 -0.390625 -0.171875 -0.71875q-0.140625 -0.34375 -0.375 -0.34375q-0.3125 0 -1.015625 0.390625q-1.609375 0.9375 -3.046875 0.9375q-3.234375 0 -4.953125 -1.765625q-1.71875 -1.765625 -1.71875 -4.953125q0 -2.09375 0.859375 -3.671875q0.875 -1.59375 2.40625 -2.46875q1.53125 -0.875 3.5 -0.875zm12.087341 12.203125q1.53125 0 2.453125 -1.5l0.34375 0.109375q-0.375 1.21875 -1.34375 2.078125q-0.953125 0.84375 -2.390625 0.84375q-1.984375 0 -3.15625 -1.25q-1.15625 -1.265625 -1.15625 -3.734375q0 -2.515625 1.25 -3.84375q1.25 -1.34375 3.328125 -1.34375q3.5 0 3.5 4.140625l-5.234375 0q-0.03125 0.28125 -0.03125 0.875q0 1.234375 0.34375 2.0625q0.359375 0.8125 0.90625 1.1875q0.546875 0.375 1.1875 0.375zm-0.78125 -8.25q-0.671875 0 -1.125 0.828125q-0.4375 0.828125 -0.546875 2.5625l2.9375 0q0.03125 -1.46875 -0.296875 -2.421875q-0.328125 -0.96875 -0.96875 -0.96875zm11.525131 -0.390625q1.421875 0 2.046875 0.734375q0.3125 0.34375 0.4375 0.90625q0.140625 0.5625 0.140625 1.515625l0 5.015625q0 0.765625 0.265625 1.0625q0.28125 0.28125 0.9375 0.28125l0 0.390625q-1.875 -0.078125 -2.46875 -0.078125q-0.5625 0 -2.421875 0.078125l0 -0.390625q0.5625 0 0.78125 -0.28125q0.21875 -0.296875 0.21875 -1.0625l0 -5.796875q0 -0.765625 -0.25 -1.15625q-0.25 -0.390625 -0.90625 -0.390625q-0.765625 0 -1.3125 0.625q-0.53125 0.625 -0.53125 1.53125l0 5.1875q0 0.765625 0.21875 1.0625q0.234375 0.28125 0.78125 0.28125l0 0.390625q-1.703125 -0.078125 -2.3125 -0.078125q-0.546875 0 -2.5625 0.078125l0 -0.390625q0.671875 0 0.921875 -0.28125q0.265625 -0.296875 0.265625 -1.0625l0 -5.875q0 -0.859375 -0.265625 -1.25q-0.25 -0.390625 -0.921875 -0.390625l0 -0.390625q0.59375 0.046875 1.15625 0.046875q1.65625 0 2.71875 -0.25l0 1.671875q0.84375 -1.734375 3.0625 -1.734375zm10.001816 8.640625q1.53125 0 2.453125 -1.5l0.3437538 0.109375q-0.3750038 1.21875 -1.3437538 2.078125q-0.953125 0.84375 -2.390625 0.84375q-1.984375 0 -3.15625 -1.25q-1.15625 -1.265625 -1.15625 -3.734375q0 -2.515625 1.25 -3.84375q1.25 -1.34375 3.328125 -1.34375q3.5000038 0 3.5000038 4.140625l-5.234379 0q-0.03125 0.28125 -0.03125 0.875q0 1.234375 0.34375 2.0625q0.359375 0.8125 0.90625 1.1875q0.546875 0.375 1.1875 0.375zm-0.78125 -8.25q-0.671875 0 -1.125 0.828125q-0.4375 0.828125 -0.546875 2.5625l2.9375 0q0.03125 -1.46875 -0.296875 -2.421875q-0.328125 -0.96875 -0.96875 -0.96875zm10.993885 -0.390625q0.84375 0 1.265625 0.5q0.4375 0.5 0.4375 1.21875q0 0.6875 -0.40625 1.125q-0.390625 0.4375 -1.046875 0.4375q-0.640625 0 -1.015625 -0.328125q-0.359375 -0.328125 -0.359375 -0.859375q0 -0.90625 0.8125 -1.453125q-0.078125 -0.03125 -0.21875 -0.03125q-0.1875 0 -0.296875 0.046875q-0.71875 0.109375 -1.21875 0.859375q-0.484375 0.734375 -0.484375 1.53125l0 4.9375q0 0.859375 0.421875 1.203125q0.421875 0.328125 1.328125 0.328125l0 0.390625q-0.25 0 -0.421875 -0.015625q-1.90625 -0.0625 -2.546875 -0.0625q-0.5 0 -2.28125 0.0625q-0.15625 0.015625 -0.375 0.015625l0 -0.390625q0.671875 0 0.921875 -0.28125q0.265625 -0.296875 0.265625 -1.0625l0 -5.875q0 -0.859375 -0.265625 -1.25q-0.25 -0.390625 -0.921875 -0.390625l0 -0.390625q0.59375 0.046875 1.15625 0.046875q1.65625 0 2.71875 -0.25l0 1.734375q0.359375 -0.8125 1.03125 -1.296875q0.671875 -0.5 1.5 -0.5zm4.7593384 10.03125q-1.1875 0 -1.78125 -0.609375q-0.578125 -0.609375 -0.578125 -1.625q0 -0.84375 0.4375 -1.390625q0.4375 -0.546875 1.0625 -0.84375q0.625 -0.296875 1.59375 -0.640625q1.03125 -0.34375 1.5 -0.625q0.46875 -0.296875 0.46875 -0.8125l0 -1.453125q0 -0.78125 -0.359375 -1.21875q-0.359375 -0.4375 -1.125 -0.4375q-0.890625 0 -1.359375 0.453125q0.515625 0.171875 0.796875 0.546875q0.296875 0.375 0.296875 0.875q0 0.640625 -0.4375 1.015625q-0.421875 0.375 -1.03125 0.375q-0.65625 0 -1.015625 -0.40625q-0.34375 -0.421875 -0.34375 -1.03125q0 -0.53125 0.25 -0.890625q0.25 -0.359375 0.765625 -0.671875q0.515625 -0.3125 1.25 -0.46875q0.734375 -0.171875 1.609375 -0.171875q0.921875 0 1.578125 0.1875q0.671875 0.1875 1.125 0.640625q0.40625 0.40625 0.546875 1.0q0.140625 0.59375 0.140625 1.625l0 5.078125q0 0.4375 0.078125 0.625q0.09375 0.1875 0.34375 0.1875q0.28125 0 0.671875 -0.3125l0.1875 0.3125q-0.84375 0.6875 -2.0625 0.6875q-1.015625 0 -1.4375 -0.40625q-0.40625 -0.40625 -0.421875 -1.09375q-0.9375 1.5 -2.75 1.5zm1.4375 -1.1875q0.734375 0 1.265625 -0.765625l0 -3.828125q-0.21875 0.375 -0.9375 0.828125q-0.734375 0.46875 -1.109375 0.9375q-0.375 0.453125 -0.375 1.328125q0 0.765625 0.3125 1.140625q0.328125 0.359375 0.84375 0.359375zm9.554565 -8.578125l2.203125 0l0 0.375l-2.203125 0l0 7.53125q0 0.5625 0.1875 0.796875q0.203125 0.234375 0.640625 0.234375q0.796875 0 1.265625 -1.125l0.3125 0.171875q-0.703125 1.921875 -2.5625 1.921875q-1.21875 0 -1.859375 -0.640625q-0.390625 -0.390625 -0.53125 -0.96875q-0.140625 -0.59375 -0.140625 -1.625l0 -6.296875l-1.5625 0l0 -0.375l1.5625 0l0 -2.46875q1.546875 0 2.6875 -0.59375l0 3.0625zm5.2076263 -4.8125q0.78125 0 1.234375 0.390625q0.453125 0.375 0.453125 1.046875q0 0.671875 -0.453125 1.0625q-0.453125 0.375 -1.234375 0.375q-0.78125 0 -1.25 -0.375q-0.453125 -0.390625 -0.453125 -1.0625q0 -0.671875 0.453125 -1.046875q0.46875 -0.390625 1.25 -0.390625zm1.453125 12.71875q0 0.765625 0.265625 1.0625q0.28125 0.28125 0.921875 0.28125l0 0.390625q-1.859375 -0.078125 -2.46875 -0.078125q-0.578125 0 -2.59375 0.078125l0 -0.390625q0.671875 0 0.921875 -0.28125q0.265625 -0.296875 0.265625 -1.0625l0 -5.875q0 -0.859375 -0.265625 -1.25q-0.25 -0.390625 -0.921875 -0.390625l0 -0.390625q0.59375 0.046875 1.15625 0.046875q1.65625 0 2.71875 -0.25l0 8.109375zm9.489563 -7.859375q0.953125 0 1.4375 -0.046875l0 0.375q-0.390625 0.109375 -0.703125 0.46875q-0.296875 0.359375 -0.578125 1.125l-2.71875 7.703125q-0.203125 -0.015625 -0.625 -0.015625q-0.390625 0 -0.59375 0.015625l-3.3125 -8.234375q-0.265625 -0.640625 -0.546875 -0.84375q-0.265625 -0.203125 -0.546875 -0.203125l0 -0.390625q1.3125 0.09375 2.65625 0.09375q1.171875 0 2.421875 -0.09375l0 0.390625q-0.640625 0 -0.90625 0.09375q-0.265625 0.078125 -0.265625 0.4375q0 0.15625 0.09375 0.46875l2.125 5.65625l1.34375 -3.6875q0.296875 -0.875 0.296875 -1.515625q0 -1.359375 -1.359375 -1.46875l0 -0.375q0.859375 0.046875 1.78125 0.046875zm7.1192474 8.328125q1.53125 0 2.453125 -1.5l0.34375 0.109375q-0.375 1.21875 -1.34375 2.078125q-0.953125 0.84375 -2.390625 0.84375q-1.984375 0 -3.15625 -1.25q-1.15625 -1.265625 -1.15625 -3.734375q0 -2.515625 1.25 -3.84375q1.25 -1.34375 3.328125 -1.34375q3.5 0 3.5 4.140625l-5.234375 0q-0.03125 0.28125 -0.03125 0.875q0 1.234375 0.34375 2.0625q0.359375 0.8125 0.90625 1.1875q0.546875 0.375 1.1875 0.375zm-0.78125 -8.25q-0.671875 0 -1.125 0.828125q-0.4375 0.828125 -0.546875 2.5625l2.9375 0q0.03125 -1.46875 -0.296875 -2.421875q-0.328125 -0.96875 -0.96875 -0.96875z" fill-rule="nonzero"/><path fill="#ff0000" d="m26.822506 54.53577q3.296875 0 4.9375 1.65625q1.65625 1.640625 1.65625 4.796875q0 2.03125 -0.8125 3.5625038q-0.796875 1.53125 -2.328125 2.359375q-1.515625 0.828125 -3.625 0.828125l-1.078125 -0.015625q-1.046875 -0.046875 -1.53125 -0.046875q-1.53125 0 -2.3125 0.0625l0 -0.375q0.671875 -0.03125 0.984375 -0.140625q0.3125 -0.125 0.421875 -0.4375q0.109375 -0.3125 0.109375 -1.03125l0 -9.250004q0 -0.703125 -0.109375 -1.015625q-0.109375 -0.328125 -0.421875 -0.4375q-0.3125 -0.109375 -0.984375 -0.140625l0 -0.375q0.65625 0.046875 1.8125 0.046875l1.578125 -0.015625q1.28125 -0.03125 1.703125 -0.03125zm-0.46875 0.328125q-0.578125 0 -0.875 0.140625q-0.28125 0.125 -0.390625 0.46875q-0.109375 0.328125 -0.109375 1.0l0 9.328129q0 0.671875 0.109375 1.015625q0.109375 0.328125 0.390625 0.46875q0.296875 0.125 0.890625 0.125q1.984375 0 3.125 -0.71875q1.140625 -0.71875 1.59375 -2.09375q0.453125 -1.3906288 0.453125 -3.5312538q0 -2.15625 -0.5 -3.5q-0.5 -1.359375 -1.640625 -2.03125q-1.125 -0.671875 -3.046875 -0.671875zm16.72284 10.640629q-0.34375 1.015625 -1.265625 1.765625q-0.921875 0.734375 -2.21875 0.734375q-1.328125 0 -2.296875 -0.609375q-0.96875 -0.609375 -1.484375 -1.703125q-0.515625 -1.09375 -0.515625 -2.5312538q0 -1.609375 0.515625 -2.796875q0.53125 -1.203125 1.484375 -1.84375q0.953125 -0.65625 2.21875 -0.65625q1.671875 0 2.578125 1.03125q0.90625 1.015625 0.90625 3.078125l-5.84375 0q-0.046875 0.515625 -0.046875 1.1875q0 1.2343788 0.390625 2.1562538q0.40625 0.90625 1.0625 1.40625q0.671875 0.5 1.390625 0.5q0.90625 0 1.59375 -0.421875q0.6875 -0.4375 1.15625 -1.453125l0.375 0.15625zm-3.640625 -7.281254q-0.875 0 -1.515625 0.859375q-0.625 0.859375 -0.78125 2.53125l4.0625 0q0.046875 -1.453125 -0.421875 -2.421875q-0.453125 -0.96875 -1.34375 -0.96875zm13.080688 7.281254q-0.34375 1.015625 -1.265625 1.765625q-0.921875 0.734375 -2.21875 0.734375q-1.328125 0 -2.296875 -0.609375q-0.96875 -0.609375 -1.484375 -1.703125q-0.515625 -1.09375 -0.515625 -2.5312538q0 -1.609375 0.515625 -2.796875q0.53125 -1.203125 1.484375 -1.84375q0.953125 -0.65625 2.21875 -0.65625q1.671875 0 2.578125 1.03125q0.90625 1.015625 0.90625 3.078125l-5.84375 0q-0.046875 0.515625 -0.046875 1.1875q0 1.2343788 0.390625 2.1562538q0.40625 0.90625 1.0625 1.40625q0.671875 0.5 1.390625 0.5q0.90625 0 1.59375 -0.421875q0.6875 -0.4375 1.15625 -1.453125l0.375 0.15625zm-3.640625 -7.281254q-0.875 0 -1.515625 0.859375q-0.625 0.859375 -0.78125 2.53125l4.0625 0q0.046875 -1.453125 -0.421875 -2.421875q-0.453125 -0.96875 -1.34375 -0.96875zm10.940063 -0.359375q0.984375 0 1.765625 0.546875q0.796875 0.546875 1.25 1.59375q0.453125 1.03125 0.453125 2.484375q0 1.4375 -0.46875 2.6875038q-0.453125 1.25 -1.421875 2.046875q-0.953125 0.78125 -2.390625 0.78125q-0.703125 0 -1.28125 -0.28125q-0.578125 -0.28125 -0.90625 -0.734375l0 2.390625q0 0.765625 0.453125 1.046875q0.453125 0.296875 1.34375 0.296875l0 0.390625l-0.421875 -0.015625q-1.734375 -0.0625 -2.265625 -0.0625q-0.4375 0 -2.015625 0.078125l0 -0.390625q0.6875 0 0.953125 -0.25q0.28125 -0.25 0.28125 -0.90625l0 -9.406254q0 -0.859375 -0.328125 -1.25q-0.3125 -0.390625 -1.09375 -0.390625l0 -0.390625q0.578125 0.0625 1.15625 0.0625q1.1875 0 1.9375 -0.265625l0 1.984375q0.421875 -0.984375 1.203125 -1.515625q0.78125 -0.53125 1.796875 -0.53125zm-1.015625 9.703129q2.671875 0 2.671875 -4.812504q0 -4.328125 -2.171875 -4.328125q-0.828125 0 -1.5 0.609375q-0.671875 0.609375 -0.984375 1.75l0 5.593754q0.265625 0.53125 0.765625 0.859375q0.515625 0.328125 1.21875 0.328125zm10.565784 -12.656254q-0.671875 0.03125 -0.984375 0.140625q-0.3125 0.109375 -0.421875 0.4375q-0.109375 0.3125 -0.109375 1.015625l0 9.250004q0 0.71875 0.109375 1.03125q0.109375 0.3125 0.421875 0.421875q0.3125 0.109375 0.984375 0.109375l1.359375 0q1.15625 0 1.75 -0.328125q0.609375 -0.328125 0.890625 -1.046875q0.28125 -0.734375 0.421875 -2.1250038l0.421875 0q-0.0625 0.5781288 -0.0625 1.5312538q0 1.0625 0.140625 2.390625q-1.265625 -0.0625 -4.28125 -0.0625q-3.578125 0 -5.40625 0.0625l0 -0.375q0.671875 -0.03125 0.984375 -0.140625q0.3125 -0.125 0.421875 -0.4375q0.109375 -0.3125 0.109375 -1.03125l0 -9.250004q0 -0.703125 -0.109375 -1.015625q-0.109375 -0.328125 -0.421875 -0.4375q-0.3125 -0.109375 -0.984375 -0.140625l0 -0.375q0.78125 0.046875 2.390625 0.046875q1.5 0 2.375 -0.046875l0 0.375zm14.063629 10.593754q-0.34375 1.015625 -1.265625 1.765625q-0.921875 0.734375 -2.21875 0.734375q-1.328125 0 -2.296875 -0.609375q-0.96875 -0.609375 -1.484375 -1.703125q-0.515625 -1.09375 -0.515625 -2.5312538q0 -1.609375 0.515625 -2.796875q0.53125 -1.203125 1.484375 -1.84375q0.953125 -0.65625 2.21875 -0.65625q1.671875 0 2.578125 1.03125q0.90625 1.015625 0.90625 3.078125l-5.84375 0q-0.046875 0.515625 -0.046875 1.1875q0 1.2343788 0.390625 2.1562538q0.40625 0.90625 1.0625 1.40625q0.671875 0.5 1.390625 0.5q0.90625 0 1.59375 -0.421875q0.6875 -0.4375 1.15625 -1.453125l0.375 0.15625zm-3.640625 -7.281254q-0.875 0 -1.515625 0.859375q-0.625 0.859375 -0.78125 2.53125l4.0625 0q0.046875 -1.453125 -0.421875 -2.421875q-0.453125 -0.96875 -1.34375 -0.96875zm7.4869385 9.640629q-1.1875 0 -1.75 -0.578125q-0.5625 -0.59375 -0.5625 -1.640625q0 -0.828125 0.453125 -1.375q0.453125 -0.5468788 1.078125 -0.8593788q0.625 -0.3125 1.65625 -0.671875q1.046875 -0.359375 1.546875 -0.65625q0.5 -0.296875 0.5 -0.796875l0 -1.15625q0 -1.078125 -0.453125 -1.484375q-0.453125 -0.40625 -1.28125 -0.40625q-1.3125 0 -1.84375 0.671875q0.375 0.09375 0.625 0.390625q0.25 0.296875 0.25 0.75q0 0.46875 -0.296875 0.75q-0.296875 0.265625 -0.765625 0.265625q-0.53125 0 -0.796875 -0.328125q-0.25 -0.328125 -0.25 -0.796875q0 -0.453125 0.203125 -0.75q0.21875 -0.296875 0.65625 -0.59375q0.453125 -0.3125 1.140625 -0.515625q0.6875 -0.21875 1.515625 -0.21875q1.453125 0 2.1875 0.703125q0.46875 0.421875 0.625 1.03125q0.171875 0.609375 0.171875 1.59375l0 5.187504q0 0.46875 0.125 0.671875q0.125 0.203125 0.453125 0.203125q0.21875 0 0.40625 -0.09375q0.203125 -0.109375 0.421875 -0.296875l0.203125 0.3125q-0.484375 0.375 -0.828125 0.53125q-0.34375 0.15625 -0.859375 0.15625q-0.90625 0 -1.265625 -0.4375q-0.34375 -0.453125 -0.34375 -1.21875q-0.5625 0.9375 -1.296875 1.296875q-0.71875 0.359375 -1.625 0.359375zm0.8125 -0.734375q1.234375 0 2.109375 -1.421875l0 -3.6562538q-0.171875 0.265625 -0.46875 0.4375q-0.296875 0.15625 -0.90625 0.4375q-0.71875 0.296875 -1.15625 0.578125q-0.4375 0.265625 -0.75 0.7343788q-0.3125 0.453125 -0.3125 1.1875q0 0.84375 0.40625 1.28125q0.40625 0.421875 1.078125 0.421875zm11.775192 -9.265629q0.75 0 1.21875 0.4375q0.484375 0.421875 0.484375 1.046875q0 0.484375 -0.296875 0.828125q-0.28125 0.34375 -0.765625 0.34375q-0.421875 0 -0.71875 -0.265625q-0.28125 -0.265625 -0.28125 -0.703125q0 -0.625 0.640625 -1.015625q-0.125 -0.1875 -0.390625 -0.1875q-0.734375 0 -1.328125 0.578125q-0.59375 0.5625 -0.9375 1.390625q-0.328125 0.8125 -0.328125 1.546875l0 3.9531288q0 0.859375 0.484375 1.203125q0.5 0.328125 1.484375 0.328125l0 0.390625l-0.4375 -0.015625q-1.90625 -0.0625 -2.421875 -0.0625q-0.5 0 -2.203125 0.078125l0 -0.390625q0.78125 0 1.09375 -0.28125q0.3125 -0.296875 0.3125 -1.0625l0 -5.843754q0 -0.859375 -0.3125 -1.25q-0.3125 -0.390625 -1.09375 -0.390625l0 -0.390625q0.59375 0.0625 1.15625 0.0625q1.171875 0 1.9375 -0.265625l0 2.328125q0.328125 -0.921875 1.0625 -1.65625q0.75 -0.734375 1.640625 -0.734375zm8.770782 0q1.296875 0 1.96875 0.71875q0.359375 0.375 0.5 0.9375q0.15625 0.546875 0.15625 1.5l0 4.984379q0 0.765625 0.3125 1.0625q0.328125 0.28125 1.109375 0.28125l0 0.390625q-1.71875 -0.078125 -2.234375 -0.078125q-0.53125 0 -2.09375 0.078125l0 -0.390625q0.6875 0 0.953125 -0.28125q0.28125 -0.296875 0.28125 -1.0625l0 -5.390629q0 -1.046875 -0.3125 -1.59375q-0.296875 -0.546875 -1.203125 -0.546875q-0.765625 0 -1.359375 0.453125q-0.59375 0.4375 -0.921875 1.21875q-0.328125 0.765625 -0.328125 1.71875l0 4.140629q0 0.765625 0.265625 1.0625q0.265625 0.28125 0.96875 0.28125l0 0.390625q-1.578125 -0.078125 -2.09375 -0.078125q-0.53125 0 -2.234375 0.078125l0 -0.390625q0.78125 0 1.09375 -0.28125q0.3125 -0.296875 0.3125 -1.0625l0 -5.843754q0 -0.859375 -0.3125 -1.25q-0.3125 -0.390625 -1.09375 -0.390625l0 -0.390625q0.59375 0.0625 1.15625 0.0625q1.171875 0 1.9375 -0.265625l0 2.203125q0.46875 -1.203125 1.296875 -1.734375q0.828125 -0.53125 1.875 -0.53125zm6.997162 -4.390625q0.484375 0 0.828125 0.359375q0.359375 0.34375 0.359375 0.828125q0 0.484375 -0.359375 0.84375q-0.34375 0.34375 -0.828125 0.34375q-0.484375 0 -0.84375 -0.34375q-0.359375 -0.359375 -0.359375 -0.84375q0 -0.484375 0.359375 -0.828125q0.359375 -0.359375 0.84375 -0.359375zm0.96875 12.531254q0 0.765625 0.3125 1.0625q0.3125 0.28125 1.109375 0.28125l0 0.390625q-1.71875 -0.078125 -2.265625 -0.078125q-0.546875 0 -2.25 0.078125l0 -0.390625q0.78125 0 1.09375 -0.28125q0.3125 -0.296875 0.3125 -1.0625l0 -5.843754q0 -0.859375 -0.3125 -1.25q-0.3125 -0.390625 -1.09375 -0.390625l0 -0.390625q0.59375 0.0625 1.15625 0.0625q1.171875 0 1.9375 -0.265625l0 8.078129zm8.638153 -8.140629q1.296875 0 1.96875 0.71875q0.359375 0.375 0.5 0.9375q0.15625 0.546875 0.15625 1.5l0 4.984379q0 0.765625 0.3125 1.0625q0.328125 0.28125 1.109375 0.28125l0 0.390625q-1.71875 -0.078125 -2.234375 -0.078125q-0.53125 0 -2.09375 0.078125l0 -0.390625q0.6875 0 0.953125 -0.28125q0.28125 -0.296875 0.28125 -1.0625l0 -5.390629q0 -1.046875 -0.3125 -1.59375q-0.296875 -0.546875 -1.203125 -0.546875q-0.765625 0 -1.359375 0.453125q-0.59375 0.4375 -0.921875 1.21875q-0.328125 0.765625 -0.328125 1.71875l0 4.140629q0 0.765625 0.265625 1.0625q0.265625 0.28125 0.96875 0.28125l0 0.390625q-1.578125 -0.078125 -2.09375 -0.078125q-0.53125 0 -2.234375 0.078125l0 -0.390625q0.78125 0 1.09375 -0.28125q0.3125 -0.296875 0.3125 -1.0625l0 -5.843754q0 -0.859375 -0.3125 -1.25q-0.3125 -0.390625 -1.09375 -0.390625l0 -0.390625q0.59375 0.0625 1.15625 0.0625q1.171875 0 1.9375 -0.265625l0 2.203125q0.46875 -1.203125 1.296875 -1.734375q0.828125 -0.53125 1.875 -0.53125zm12.919876 1.953125q-0.328125 0 -0.5625 -0.21875q-0.234375 -0.234375 -0.234375 -0.671875q0 -0.359375 0.1875 -0.84375q-0.484375 0.203125 -0.765625 0.453125q-0.28125 0.25 -0.5 0.625q0.421875 0.65625 0.421875 1.65625q0 1.46875 -0.890625 2.21875q-0.890625 0.734375 -2.375 0.734375l-0.015625 0q-0.609375 0.3437538 -0.9375 0.6562538q-0.3125 0.296875 -0.3125 0.65625q0 0.609375 0.890625 0.609375l2.34375 0q1.265625 0 2.09375 0.546875q0.828125 0.546875 0.828125 1.65625q0 0.890625 -0.578125 1.65625q-0.578125 0.765625 -1.703125 1.21875q-1.109375 0.46875 -2.703125 0.46875q-1.625 0 -2.71875 -0.5q-1.078125 -0.484375 -1.078125 -1.453125q0 -0.625 0.5 -1.09375q0.515625 -0.46875 1.4375 -0.734375l0.109375 0.296875q-0.40625 0.140625 -0.65625 0.53125q-0.234375 0.390625 -0.234375 0.875q0 0.859375 0.765625 1.3125q0.78125 0.453125 2.078125 0.453125q1.4375 0 2.46875 -0.546875q1.03125 -0.546875 1.03125 -1.703125q0 -0.671875 -0.484375 -1.046875q-0.46875 -0.375 -1.6875 -0.375l-1.375 0q-1.109375 0 -1.765625 -0.28125q-0.65625 -0.28125 -0.65625 -1.125q0 -0.578125 0.40625 -1.09375q0.421875 -0.515625 1.390625 -1.0312538q-1.21875 -0.125 -1.96875 -0.84375q-0.734375 -0.734375 -0.734375 -2.0625q0 -1.46875 0.890625 -2.203125q0.90625 -0.75 2.375 -0.75q1.765625 0 2.59375 0.96875q0.359375 -0.5 0.890625 -0.828125q0.546875 -0.328125 1.09375 -0.328125q0.484375 0 0.78125 0.28125q0.296875 0.28125 0.296875 0.8125q0 0.515625 -0.296875 0.78125q-0.28125 0.265625 -0.640625 0.265625zm-4.71875 3.609375q0.75 0 1.125 -0.578125q0.390625 -0.59375 0.390625 -2.03125q0 -1.4375 -0.390625 -2.015625q-0.375 -0.59375 -1.125 -0.59375q-0.734375 0 -1.125 0.59375q-0.375 0.578125 -0.375 2.015625q0 1.4375 0.375 2.03125q0.390625 0.578125 1.125 0.578125z" fill-rule="nonzero"/></g></svg>