<svg version="1.1" viewBox="0.0 0.0 783.6482939632546 154.4435695538058" fill="none" stroke="none" stroke-linecap="square" stroke-miterlimit="10" xmlns:xlink="http://www.w3.org/1999/xlink" xmlns="http://www.w3.org/2000/svg"><clipPath id="p.0"><path d="m0 0l783.6483 0l0 154.44357l-783.6483 0l0 -154.44357z" clip-rule="nonzero"/></clipPath><g clip-path="url(#p.0)"><path fill="#000000" fill-opacity="0.0" d="m0 0l783.6483 0l0 154.44357l-783.6483 0z" fill-rule="evenodd"/><path fill="#000000" fill-opacity="0.0" d="m24.538069 0l755.1181 0l0 132.44095l-755.1181 0z" fill-rule="evenodd"/><path fill="#434343" d="m57.83494 68.087494q3.71875 0 6.265629 1.015625q2.5625 1.015625 5.015625 2.875q0.71875 0.546875 1.203125 0.546875q0.59375 0 0.953125 -0.875q0.359375 -0.875 0.546875 -2.734375l1.375 0q-0.234375 4.078125 -0.234375 14.53125l-1.375 0q-0.484375 -4.09375 -1.421875 -6.609375q-0.921875 -2.515625 -3.078125 -4.25q-1.453125 -1.390625 -3.5468788 -2.171875q-2.09375 -0.78125 -4.3125 -0.78125q-4.203125 0 -7.0 2.859375q-2.78125 2.84375 -4.109375 7.53125q-1.3125 4.671875 -1.3125 10.25q0 20.765625 11.515625 20.765625q2.640625 0 4.265625 -1.203125q0.765625 -0.53125 1.09375 -1.25q0.3437538 -0.734375 0.3437538 -1.875l0 -5.875q0 -2.8125 -0.4843788 -4.09375q-0.484375 -1.296875 -1.71875 -1.78125q-1.21875 -0.484375 -3.859375 -0.609375l0 -1.1875q3.71875 0.171875 10.265629 0.171875q5.328125 0 8.03125 -0.171875l0 1.1875q-1.203125 0.125 -1.75 0.484375q-0.53125 0.359375 -0.75 1.390625q-0.203125 1.015625 -0.203125 3.296875l0 11.875l-1.203125 0q-0.046875 -1.265625 -0.5 -2.34375q-0.453125 -1.078125 -1.234375 -1.078125q-1.015625 0 -3.234375 1.265625q-5.218754 3.0 -9.843754 3.0q-10.375 0 -15.90625 -5.671875q-5.515625 -5.671875 -5.515625 -15.9375q0 -6.71875 2.78125 -11.8125q2.796875 -5.109375 7.71875 -7.921875q4.921875 -2.8125 11.21875 -2.8125zm38.881214 39.234375q4.921875 0 7.921875 -4.796875l1.078125 0.359375q-1.203125 3.890625 -4.296875 6.625q-3.078125 2.734375 -7.703125 2.734375q-6.359375 0 -10.109375 -4.046875q-3.75 -4.0625 -3.75 -11.984375q0 -8.09375 4.015625 -12.375q4.03125 -4.296875 10.6875 -4.296875q11.28125 0 11.28125 13.3125l-16.859375 0q-0.0625 0.90625 -0.0625 2.828125q0 3.953125 1.109375 6.59375q1.109375 2.640625 2.875 3.84375q1.78125 1.203125 3.8125 1.203125zm-2.515625 -26.515625q-2.15625 0 -3.578125 2.671875q-1.40625 2.65625 -1.765625 8.234375l9.421875 0q0.125 -4.734375 -0.9375 -7.8125q-1.046875 -3.09375 -3.140625 -3.09375zm37.0831 -1.265625q4.546875 0 6.59375 2.34375q1.015625 1.140625 1.4375 2.9375q0.421875 1.796875 0.421875 4.859375l0 16.140625q0 2.453125 0.859375 3.390625q0.875 0.921875 2.984375 0.921875l0 1.265625q-6.0 -0.234375 -7.921875 -0.234375q-1.796875 0 -7.796875 0.234375l0 -1.265625q1.796875 0 2.515625 -0.921875q0.71875 -0.9375 0.71875 -3.390625l0 -18.65625q0 -2.46875 -0.8125 -3.71875q-0.8125 -1.265625 -2.90625 -1.265625q-2.453125 0 -4.203125 2.015625q-1.734375 2.0 -1.734375 4.9375l0 16.6875q0 2.453125 0.71875 3.390625q0.71875 0.921875 2.515625 0.921875l0 1.265625q-5.515625 -0.234375 -7.4375 -0.234375q-1.796875 0 -8.28125 0.234375l0 -1.265625q2.15625 0 3.0 -0.921875q0.84375 -0.9375 0.84375 -3.390625l0 -18.90625q0 -2.75 -0.84375 -4.015625q-0.84375 -1.265625 -3.0 -1.265625l0 -1.25q1.921875 0.171875 3.71875 0.171875q5.34375 0 8.765625 -0.84375l0 5.40625q2.703125 -5.578125 9.84375 -5.578125zm32.152466 27.78125q4.921875 0 7.921875 -4.796875l1.078125 0.359375q-1.203125 3.890625 -4.296875 6.625q-3.078125 2.734375 -7.703125 2.734375q-6.359375 0 -10.109375 -4.046875q-3.75 -4.0625 -3.75 -11.984375q0 -8.09375 4.015625 -12.375q4.03125 -4.296875 10.6875 -4.296875q11.28125 0 11.28125 13.3125l-16.859375 0q-0.0625 0.90625 -0.0625 2.828125q0 3.953125 1.109375 6.59375q1.109375 2.640625 2.875 3.84375q1.78125 1.203125 3.8125 1.203125zm-2.515625 -26.515625q-2.15625 0 -3.578125 2.671875q-1.40625 2.65625 -1.765625 8.234375l9.421875 0q0.125 -4.734375 -0.9375 -7.8125q-1.046875 -3.09375 -3.140625 -3.09375zm35.3956 -1.265625q2.703125 0 4.078125 1.625q1.390625 1.609375 1.390625 3.890625q0 2.21875 -1.296875 3.640625q-1.296875 1.40625 -3.390625 1.40625q-2.046875 0 -3.25 -1.046875q-1.1875 -1.0625 -1.1875 -2.796875q0 -2.875 2.640625 -4.671875q-0.25 -0.0625 -0.71875 -0.0625q-0.609375 0 -0.96875 0.109375q-2.28125 0.359375 -3.875 2.765625q-1.578125 2.40625 -1.578125 4.921875l0 15.890625q0 2.765625 1.34375 3.84375q1.359375 1.078125 4.296875 1.078125l0 1.265625q-0.84375 0 -1.375 -0.0625q-6.125 -0.171875 -8.171875 -0.171875q-1.609375 0 -7.375 0.171875q-0.484375 0.0625 -1.203125 0.0625l0 -1.265625q2.15625 0 3.0 -0.921875q0.84375 -0.9375 0.84375 -3.390625l0 -18.90625q0 -2.75 -0.84375 -4.015625q-0.84375 -1.265625 -3.0 -1.265625l0 -1.25q1.921875 0.171875 3.71875 0.171875q5.34375 0 8.765625 -0.84375l0 5.59375q1.140625 -2.59375 3.296875 -4.171875q2.15625 -1.59375 4.859375 -1.59375zm15.301224 32.28125q-3.84375 0 -5.734375 -1.984375q-1.890625 -1.984375 -1.890625 -5.21875q0 -2.703125 1.40625 -4.46875q1.421875 -1.765625 3.421875 -2.71875q2.015625 -0.96875 5.140625 -2.046875q3.296875 -1.140625 4.828125 -2.0625q1.53125 -0.9375 1.53125 -2.5625l0 -4.671875q0 -2.53125 -1.171875 -3.9375q-1.171875 -1.40625 -3.625 -1.40625q-2.890625 0 -4.390625 1.4375q1.6875 0.59375 2.609375 1.796875q0.9375 1.203125 0.9375 2.828125q0 2.03125 -1.390625 3.234375q-1.375 1.203125 -3.34375 1.203125q-2.109375 0 -3.25 -1.3125q-1.140625 -1.328125 -1.140625 -3.3125q0 -1.671875 0.8125 -2.84375q0.8125 -1.171875 2.484375 -2.1875q1.625 -0.96875 3.984375 -1.5q2.375 -0.546875 5.203125 -0.546875q2.9375 0 5.09375 0.609375q2.171875 0.59375 3.609375 2.03125q1.3125 1.3125 1.765625 3.234375q0.453125 1.921875 0.453125 5.21875l0 16.328125q0 1.4375 0.265625 2.046875q0.265625 0.59375 1.046875 0.59375q0.90625 0 2.171875 -1.015625l0.59375 1.015625q-2.703125 2.21875 -6.59375 2.21875q-3.3125 0 -4.640625 -1.3125q-1.3125 -1.328125 -1.359375 -3.546875q-3.0 4.859375 -8.828125 4.859375zm4.625 -3.84375q2.328125 0 4.078125 -2.453125l0 -12.3125q-0.71875 1.203125 -3.0625 2.640625q-2.34375 1.5 -3.546875 3.0q-1.1875 1.5 -1.1875 4.328125q0 2.453125 1.015625 3.625q1.015625 1.171875 2.703125 1.171875zm30.720596 -27.59375l7.078125 0l0 1.203125l-7.078125 0l0 24.234375q0 1.796875 0.625 2.546875q0.625 0.75 2.015625 0.75q2.578125 0 4.078125 -3.59375l1.015625 0.53125q-2.28125 6.1875 -8.21875 6.1875q-3.953125 0 -6.0 -2.046875q-1.265625 -1.25 -1.71875 -3.140625q-0.4375 -1.890625 -0.4375 -5.203125l0 -20.265625l-5.046875 0l0 -1.203125l5.046875 0l0 -7.921875q4.96875 0 8.640625 -1.921875l0 9.84375zm16.744965 -15.484375q2.515625 0 3.984375 1.234375q1.46875 1.21875 1.46875 3.390625q0 2.15625 -1.46875 3.390625q-1.46875 1.21875 -3.984375 1.21875q-2.515625 0 -4.0 -1.21875q-1.46875 -1.234375 -1.46875 -3.390625q0 -2.171875 1.46875 -3.390625q1.484375 -1.234375 4.0 -1.234375zm4.671875 40.921875q0 2.453125 0.859375 3.390625q0.875 0.921875 2.984375 0.921875l0 1.265625q-6.0 -0.234375 -7.984375 -0.234375q-1.859375 0 -8.343735 0.234375l0 -1.265625q2.1562347 0 2.9999847 -0.921875q0.84375 -0.9375 0.84375 -3.390625l0 -18.90625q0 -2.75 -0.84375 -4.015625q-0.84375 -1.265625 -2.9999847 -1.265625l0 -1.25q1.9218597 0.171875 3.7187347 0.171875q5.34375 0 8.765625 -0.84375l0 26.109375zm30.534973 -25.265625q3.0625 0 4.625 -0.171875l0 1.203125q-1.265625 0.359375 -2.25 1.53125q-0.984375 1.15625 -1.890625 3.625l-8.765625 24.78125q-0.65625 -0.0625 -1.96875 -0.0625q-1.265625 0 -1.921875 0.0625l-10.6875 -26.53125q-0.84375 -2.03125 -1.71875 -2.6875q-0.859375 -0.671875 -1.765625 -0.671875l0 -1.25q4.203125 0.296875 8.53125 0.296875q3.78125 0 7.796875 -0.296875l0 1.25q-2.046875 0 -2.921875 0.28125q-0.859375 0.265625 -0.859375 1.46875q0 0.46875 0.296875 1.5l6.84375 18.171875l4.3125 -11.875q0.96875 -2.828125 0.96875 -4.859375q0 -4.375 -4.375 -4.734375l0 -1.203125q2.75 0.171875 5.75 0.171875zm22.861206 26.765625q4.921875 0 7.921875 -4.796875l1.078125 0.359375q-1.203125 3.890625 -4.296875 6.625q-3.078125 2.734375 -7.703125 2.734375q-6.359375 0 -10.109375 -4.046875q-3.75 -4.0625 -3.75 -11.984375q0 -8.09375 4.015625 -12.375q4.03125 -4.296875 10.6875 -4.296875q11.28125 0 11.28125 13.3125l-16.859375 0q-0.0625 0.90625 -0.0625 2.828125q0 3.953125 1.109375 6.59375q1.109375 2.640625 2.875 3.84375q1.78125 1.203125 3.8125 1.203125zm-2.515625 -26.515625q-2.15625 0 -3.578125 2.671875q-1.40625 2.65625 -1.765625 8.234375l9.421875 0q0.125 -4.734375 -0.9375 -7.8125q-1.046875 -3.09375 -3.140625 -3.09375z" fill-rule="nonzero"/><path fill="#ff0000" d="m366.53152 35.88437q18.875 0 28.265625 9.4375q9.390625 9.4375 9.390625 27.46875q0 11.625 -4.59375 20.375q-4.578125 8.734375 -13.28125 13.484375q-8.6875 4.75 -20.734375 4.75l-6.1875 -0.109375q-5.96875 -0.203125 -8.75 -0.203125q-8.75 0 -13.21875 0.3125l0 -2.140625q3.828125 -0.203125 5.59375 -0.84375q1.765625 -0.640625 2.40625 -2.453125q0.640625 -1.8125 0.640625 -5.875l0 -52.890625q0 -4.0625 -0.640625 -5.875q-0.640625 -1.8125 -2.40625 -2.453125q-1.765625 -0.640625 -5.59375 -0.84375l0 -2.140625q3.734375 0.328125 10.34375 0.328125l9.0625 -0.109375q7.25 -0.21875 9.703125 -0.21875zm-2.65625 1.921875q-3.3125 0 -4.96875 0.75q-1.65625 0.75 -2.296875 2.671875q-0.640625 1.90625 -0.640625 5.75l0 53.328125q0 3.84375 0.640625 5.765625q0.640625 1.921875 2.296875 2.671875q1.65625 0.734375 5.0625 0.734375q11.3125 0 17.8125 -4.09375q6.515625 -4.109375 9.125 -12.0q2.609375 -7.90625 2.609375 -20.171875q0 -12.265625 -2.875 -19.984375q-2.875 -7.734375 -9.328125 -11.578125q-6.453125 -3.84375 -17.4375 -3.84375z" fill-rule="nonzero"/><path fill="#ff0000" d="m437.83154 104.19687q-1.078125 3.296875 -4.046875 5.671875q-2.96875 2.375 -7.171875 2.375q-4.265625 0 -7.390625 -1.953125q-3.109375 -1.953125 -4.765625 -5.453125q-1.640625 -3.515625 -1.640625 -8.140625q0 -5.21875 1.671875 -9.046875q1.6875 -3.84375 4.734375 -5.90625q3.0625 -2.078125 7.140625 -2.078125q5.40625 0 8.3125 3.265625q2.921875 3.265625 2.921875 9.921875l-18.78125 0q-0.1875 1.6875 -0.1875 3.84375q0 3.96875 1.28125 6.90625q1.296875 2.9375 3.421875 4.53125q2.140625 1.578125 4.484375 1.578125q2.875 0 5.09375 -1.375q2.21875 -1.375 3.71875 -4.625l1.203125 0.484375zm-11.703125 -23.390625q-2.8125 0 -4.859375 2.765625q-2.03125 2.75 -2.515625 8.140625l13.078125 0q0.125 -4.671875 -1.359375 -7.78125q-1.46875 -3.125 -4.34375 -3.125zm42.06308 23.390625q-1.078125 3.296875 -4.046875 5.671875q-2.96875 2.375 -7.171875 2.375q-4.265625 0 -7.390625 -1.953125q-3.109375 -1.953125 -4.765625 -5.453125q-1.640625 -3.515625 -1.640625 -8.140625q0 -5.21875 1.671875 -9.046875q1.6875 -3.84375 4.734375 -5.90625q3.0625 -2.078125 7.140625 -2.078125q5.40625 0 8.3125 3.265625q2.921875 3.265625 2.921875 9.921875l-18.78125 0q-0.1875 1.6875 -0.1875 3.84375q0 3.96875 1.28125 6.90625q1.296875 2.9375 3.421875 4.53125q2.140625 1.578125 4.484375 1.578125q2.875 0 5.09375 -1.375q2.21875 -1.375 3.71875 -4.625l1.203125 0.484375zm-11.703125 -23.390625q-2.8125 0 -4.859375 2.765625q-2.03125 2.75 -2.515625 8.140625l13.078125 0q0.125 -4.671875 -1.359375 -7.78125q-1.46875 -3.125 -4.34375 -3.125zm35.15686 -1.140625q3.1875 0 5.734375 1.734375q2.546875 1.734375 3.984375 5.09375q1.453125 3.359375 1.453125 8.046875q0 4.625 -1.484375 8.640625q-1.46875 4.015625 -4.5625 6.546875q-3.078125 2.515625 -7.703125 2.515625q-2.28125 0 -4.140625 -0.890625q-1.859375 -0.90625 -2.875 -2.359375l0 7.6875q0 2.453125 1.4375 3.375q1.4375 0.9375 4.328125 0.9375l0 1.265625l-1.390625 -0.0625q-5.578125 -0.171875 -7.25 -0.171875q-1.453125 0 -6.484375 0.234375l0 -1.265625q2.21875 0 3.078125 -0.8125q0.875 -0.796875 0.875 -2.90625l0 -30.234375q0 -2.765625 -1.015625 -4.015625q-1.015625 -1.265625 -3.546875 -1.265625l0 -1.265625q1.875 0.1875 3.734375 0.1875q3.765625 0 6.234375 -0.84375l0 6.359375q1.3125 -3.109375 3.828125 -4.8125q2.53125 -1.71875 5.765625 -1.71875zm-3.234375 31.1875q8.578125 0 8.578125 -15.46875q0 -13.921875 -6.953125 -13.921875q-2.703125 0 -4.875 1.953125q-2.15625 1.9375 -3.109375 5.609375l0 18.0q0.84375 1.734375 2.453125 2.78125q1.625 1.046875 3.90625 1.046875zm33.951874 -40.734375q-2.15625 0.125 -3.140625 0.484375q-0.984375 0.359375 -1.359375 1.375q-0.359375 1.015625 -0.359375 3.296875l0 29.765625q0 2.28125 0.359375 3.296875q0.375 1.015625 1.359375 1.359375q0.984375 0.328125 3.140625 0.328125l4.390625 0q3.71875 0 5.65625 -1.046875q1.953125 -1.0625 2.859375 -3.390625q0.90625 -2.34375 1.328125 -6.78125l1.375 0q-0.1875 1.859375 -0.1875 4.90625q0 3.421875 0.421875 7.6875q-4.078125 -0.1875 -13.734375 -0.1875q-11.515625 0 -17.40628 0.1875l0 -1.203125q2.171875 -0.109375 3.15625 -0.46875q0.984375 -0.375 1.34375 -1.390625q0.359375 -1.015625 0.359375 -3.296875l0 -29.765625q0 -2.28125 -0.359375 -3.296875q-0.359375 -1.015625 -1.34375 -1.375q-0.984375 -0.359375 -3.15625 -0.484375l0 -1.203125q2.53125 0.1875 7.6875305 0.1875q4.796875 0 7.609375 -0.1875l0 1.203125zm45.24872 34.078125q-1.078125 3.296875 -4.046875 5.671875q-2.96875 2.375 -7.171875 2.375q-4.265625 0 -7.390625 -1.953125q-3.109375 -1.953125 -4.765625 -5.453125q-1.640625 -3.515625 -1.640625 -8.140625q0 -5.21875 1.671875 -9.046875q1.6875 -3.84375 4.734375 -5.90625q3.0625 -2.078125 7.140625 -2.078125q5.40625 0 8.3125 3.265625q2.921875 3.265625 2.921875 9.921875l-18.78125 0q-0.1875 1.6875 -0.1875 3.84375q0 3.96875 1.28125 6.90625q1.296875 2.9375 3.421875 4.53125q2.140625 1.578125 4.484375 1.578125q2.875 0 5.09375 -1.375q2.21875 -1.375 3.71875 -4.625l1.203125 0.484375zm-11.703125 -23.390625q-2.8125 0 -4.859375 2.765625q-2.03125 2.75 -2.515625 8.140625l13.078125 0q0.125 -4.671875 -1.359375 -7.78125q-1.46875 -3.125 -4.34375 -3.125zm24.06311 31.015625q-3.78125 0 -5.609375 -1.890625q-1.828125 -1.890625 -1.828125 -5.25q0 -2.703125 1.46875 -4.4375q1.46875 -1.75 3.46875 -2.765625q2.015625 -1.015625 5.3125 -2.15625q3.359375 -1.140625 4.984375 -2.09375q1.625 -0.96875 1.625 -2.59375l0 -3.71875q0 -3.46875 -1.46875 -4.765625q-1.46875 -1.296875 -4.109375 -1.296875q-4.203125 0 -5.9375 2.171875q1.1875 0.296875 2.0 1.265625q0.8125 0.953125 0.8125 2.390625q0 1.5 -0.96875 2.375q-0.953125 0.859375 -2.453125 0.859375q-1.671875 0 -2.515625 -1.046875q-0.84375 -1.046875 -0.84375 -2.546875q0 -1.4375 0.6875 -2.390625q0.6875 -0.96875 2.078125 -1.9375q1.4375 -1.015625 3.65625 -1.671875q2.21875 -0.65625 4.859375 -0.65625q4.6875 0 7.078125 2.21875q1.5 1.375 2.0 3.328125q0.515625 1.953125 0.515625 5.125l0 16.6875q0 1.5 0.421875 2.15625q0.421875 0.65625 1.4375 0.65625q0.734375 0 1.359375 -0.328125q0.625 -0.328125 1.34375 -0.921875l0.65625 1.015625q-1.546875 1.203125 -2.65625 1.71875q-1.109375 0.5 -2.796875 0.5q-2.875 0 -4.015625 -1.4375q-1.140625 -1.4375 -1.140625 -3.90625q-1.796875 3.0 -4.140625 4.171875q-2.34375 1.171875 -5.28125 1.171875zm2.640625 -2.40625q3.953125 0 6.78125 -4.5625l0 -11.75q-0.546875 0.84375 -1.515625 1.390625q-0.953125 0.53125 -2.921875 1.421875q-2.28125 0.96875 -3.703125 1.84375q-1.40625 0.859375 -2.421875 2.359375q-1.015625 1.5 -1.015625 3.84375q0 2.703125 1.3125 4.078125q1.328125 1.375 3.484375 1.375zm37.86432 -29.75q2.390625 0 3.921875 1.375q1.53125 1.375 1.53125 3.359375q0 1.5625 -0.9375 2.671875q-0.921875 1.109375 -2.484375 1.109375q-1.3125 0 -2.25 -0.84375q-0.921875 -0.84375 -0.921875 -2.28125q0 -1.96875 2.03125 -3.234375q-0.421875 -0.609375 -1.25 -0.609375q-2.34375 0 -4.265625 1.84375q-1.921875 1.828125 -3.0 4.46875q-1.078125 2.640625 -1.078125 4.96875l0 12.71875q0 2.765625 1.578125 3.84375q1.59375 1.078125 4.78125 1.078125l0 1.265625l-1.4375 -0.0625q-6.125 -0.171875 -7.8125 -0.171875q-1.546875 0 -7.078125 0.234375l0 -1.265625q2.53125 0 3.546875 -0.921875q1.015625 -0.9375 1.015625 -3.390625l0 -18.78125q0 -2.765625 -1.015625 -4.015625q-1.015625 -1.265625 -3.546875 -1.265625l0 -1.265625q1.921875 0.1875 3.71875 0.1875q3.78125 0 6.25 -0.84375l0 7.5q1.078125 -3.0 3.4375 -5.328125q2.375 -2.34375 5.265625 -2.34375zm28.200012 0q4.1875 0 6.359375 2.28125q1.140625 1.1875 1.609375 3.0q0.484375 1.796875 0.484375 4.859375l0 16.015625q0 2.453125 1.015625 3.390625q1.03125 0.921875 3.546875 0.921875l0 1.265625q-5.515625 -0.234375 -7.203125 -0.234375q-1.671875 0 -6.71875 0.234375l0 -1.265625q2.21875 0 3.078125 -0.921875q0.875 -0.9375 0.875 -3.390625l0 -17.34375q0 -3.359375 -0.953125 -5.125q-0.953125 -1.765625 -3.90625 -1.765625q-2.453125 0 -4.375 1.4375q-1.921875 1.4375 -2.96875 3.9375q-1.046875 2.484375 -1.046875 5.53125l0 13.328125q0 2.453125 0.859375 3.390625q0.875 0.921875 3.09375 0.921875l0 1.265625q-5.03125 -0.234375 -6.71875 -0.234375q-1.671875 0 -7.203125 0.234375l0 -1.265625q2.53125 0 3.546875 -0.921875q1.015625 -0.9375 1.015625 -3.390625l0 -18.78125q0 -2.765625 -1.015625 -4.015625q-1.015625 -1.265625 -3.546875 -1.265625l0 -1.265625q1.921875 0.1875 3.71875 0.1875q3.78125 0 6.25 -0.84375l0 7.078125q1.5 -3.828125 4.171875 -5.53125q2.671875 -1.71875 6.03125 -1.71875zm22.491821 -14.171875q1.5625 0 2.703125 1.140625q1.140625 1.140625 1.140625 2.703125q0 1.5625 -1.140625 2.703125q-1.140625 1.140625 -2.703125 1.140625q-1.5625 0 -2.703125 -1.140625q-1.140625 -1.140625 -1.140625 -2.703125q0 -1.5625 1.140625 -2.703125q1.140625 -1.140625 2.703125 -1.140625zm3.125 40.328125q0 2.453125 1.015625 3.390625q1.015625 0.921875 3.546875 0.921875l0 1.265625q-5.53125 -0.234375 -7.265625 -0.234375q-1.734375 0 -7.265625 0.234375l0 -1.265625q2.53125 0 3.546875 -0.921875q1.015625 -0.9375 1.015625 -3.390625l0 -18.78125q0 -2.765625 -1.015625 -4.015625q-1.015625 -1.265625 -3.546875 -1.265625l0 -1.265625q1.921875 0.1875 3.71875 0.1875q3.78125 0 6.25 -0.84375l0 25.984375zm27.783081 -26.15625q4.1875 0 6.359375 2.28125q1.140625 1.1875 1.609375 3.0q0.484375 1.796875 0.484375 4.859375l0 16.015625q0 2.453125 1.015625 3.390625q1.03125 0.921875 3.546875 0.921875l0 1.265625q-5.515625 -0.234375 -7.203125 -0.234375q-1.671875 0 -6.71875 0.234375l0 -1.265625q2.21875 0 3.078125 -0.921875q0.875 -0.9375 0.875 -3.390625l0 -17.34375q0 -3.359375 -0.953125 -5.125q-0.953125 -1.765625 -3.90625 -1.765625q-2.453125 0 -4.375 1.4375q-1.921875 1.4375 -2.96875 3.9375q-1.046875 2.484375 -1.046875 5.53125l0 13.328125q0 2.453125 0.859375 3.390625q0.875 0.921875 3.09375 0.921875l0 1.265625q-5.03125 -0.234375 -6.71875 -0.234375q-1.671875 0 -7.203125 0.234375l0 -1.265625q2.53125 0 3.546875 -0.921875q1.015625 -0.9375 1.015625 -3.390625l0 -18.78125q0 -2.765625 -1.015625 -4.015625q-1.015625 -1.265625 -3.546875 -1.265625l0 -1.265625q1.921875 0.1875 3.71875 0.1875q3.78125 0 6.25 -0.84375l0 7.078125q1.5 -3.828125 4.171875 -5.53125q2.671875 -1.71875 6.03125 -1.71875zm41.579346 6.234375q-1.078125 0 -1.828125 -0.71875q-0.75 -0.71875 -0.75 -2.09375q0 -1.203125 0.59375 -2.765625q-1.5625 0.65625 -2.46875 1.46875q-0.890625 0.8125 -1.609375 2.015625q1.375 2.09375 1.375 5.328125q0 4.75 -2.890625 7.125q-2.875 2.359375 -7.609375 2.359375l-0.0625 0q-1.96875 1.140625 -3.0 2.109375q-1.015625 0.953125 -1.015625 2.15625q0 1.921875 2.875 1.921875l7.5 0q4.078125 0 6.75 1.765625q2.671875 1.765625 2.671875 5.3125q0 2.875 -1.859375 5.328125q-1.859375 2.46875 -5.46875 3.96875q-3.59375 1.5 -8.6875 1.5q-5.21875 0 -8.734375 -1.59375q-3.5 -1.59375 -3.5 -4.703125q0 -2.046875 1.640625 -3.546875q1.65625 -1.5 4.59375 -2.34375l0.359375 0.96875q-1.328125 0.421875 -2.109375 1.671875q-0.765625 1.265625 -0.765625 2.828125q0 2.75 2.484375 4.21875q2.484375 1.484375 6.6875 1.484375q4.625 0 7.921875 -1.78125q3.296875 -1.765625 3.296875 -5.484375q0 -2.15625 -1.53125 -3.359375q-1.53125 -1.203125 -5.421875 -1.203125l-4.4375 0q-3.546875 0 -5.6875 -0.890625q-2.125 -0.90625 -2.125 -3.609375q0 -1.859375 1.34375 -3.53125q1.359375 -1.6875 4.484375 -3.3125q-3.96875 -0.40625 -6.34375 -2.75q-2.359375 -2.34375 -2.359375 -6.609375q0 -4.734375 2.875 -7.09375q2.890625 -2.375 7.625 -2.375q5.640625 0 8.34375 3.109375q1.140625 -1.609375 2.875 -2.65625q1.75 -1.0625 3.484375 -1.0625q1.5625 0 2.515625 0.90625q0.96875 0.890625 0.96875 2.578125q0 1.671875 -0.9375 2.515625q-0.921875 0.84375 -2.0625 0.84375zm-15.1875 11.640625q2.40625 0 3.625 -1.890625q1.234375 -1.890625 1.234375 -6.515625q0 -4.609375 -1.234375 -6.5q-1.21875 -1.890625 -3.625 -1.890625q-2.390625 0 -3.625 1.890625q-1.234375 1.890625 -1.234375 6.5q0 4.625 1.234375 6.515625q1.234375 1.890625 3.625 1.890625z" fill-rule="nonzero"/></g></svg>