<svg version="1.1" viewBox="0.0 0.0 684.0183727034121 382.04461942257217" fill="none" stroke="none" stroke-linecap="square" stroke-miterlimit="10" xmlns:xlink="http://www.w3.org/1999/xlink" xmlns="http://www.w3.org/2000/svg"><clipPath id="p.0"><path d="m0 0l684.0184 0l0 382.04462l-684.0184 0l0 -382.04462z" clip-rule="nonzero"/></clipPath><g clip-path="url(#p.0)"><path fill="#000000" fill-opacity="0.0" d="m0 0l684.0184 0l0 382.04462l-684.0184 0z" fill-rule="evenodd"/><path fill="#000000" fill-opacity="0.0" d="m24.538057 0l673.4803 0l0 391.71652l-673.4803 0z" fill-rule="evenodd"/><path fill="#434343" d="m87.538055 40.734375q8.265625 0 13.921875 2.265625q5.671875 2.265625 11.140625 6.40625q1.59375 1.203125 2.671875 1.203125q1.328125 0 2.125 -1.9375q0.796875 -1.9375 1.203125 -6.0625l3.0625 0q-0.53125 9.0625 -0.53125 32.265625l-3.0625 0q-1.0625 -9.078125 -3.140625 -14.671875q-2.0625 -5.59375 -6.859375 -9.46875q-3.203125 -3.0625 -7.875 -4.796875q-4.65625 -1.734375 -9.59375 -1.734375q-9.328125 0 -15.53125 6.34375q-6.203125 6.328125 -9.140625 16.734375q-2.9218712 10.390625 -2.9218712 22.78125q0 46.140625 25.593746 46.140625q5.875 0 9.46875 -2.671875q1.734375 -1.203125 2.46875 -2.796875q0.734375 -1.59375 0.734375 -4.140625l0 -13.0625q0 -6.265625 -1.078125 -9.125q-1.0625 -2.875 -3.796875 -3.9375q-2.734375 -1.0625 -8.59375 -1.328125l0 -2.671875q8.265625 0.40625 22.796875 0.40625q11.875 0 17.859375 -0.40625l0 2.671875q-2.65625 0.265625 -3.859375 1.0625q-1.203125 0.796875 -1.671875 3.0625q-0.453125 2.265625 -0.453125 7.328125l0 26.40625l-2.671875 0q-0.140625 -2.796875 -1.140625 -5.1875q-1.0 -2.40625 -2.734375 -2.40625q-2.265625 0 -7.1875 2.796875q-11.609375 6.65625 -21.875 6.65625q-23.062496 0 -35.32812 -12.59375q-12.265625 -12.59375 -12.265625 -35.390625q0 -14.9375 6.1875 -26.265625q6.203125 -11.34375 17.140625 -17.609375q10.937496 -6.265625 24.937496 -6.265625z" fill-rule="nonzero"/><path fill="#434343" d="m161.20616 130.65625q7.65625 0 12.328125 -7.46875l1.671875 0.5625q-1.859375 6.0625 -6.671875 10.3125q-4.796875 4.25 -11.984375 4.25q-9.890625 0 -15.734375 -6.296875q-5.828125 -6.3125 -5.828125 -18.625q0 -12.609375 6.25 -19.28125q6.25 -6.671875 16.609375 -6.671875q17.546875 0 17.546875 20.71875l-26.21875 0q-0.09375 1.40625 -0.09375 4.390625q0 6.15625 1.71875 10.265625q1.734375 4.109375 4.484375 5.984375q2.75 1.859375 5.921875 1.859375zm-3.90625 -41.25q-3.359375 0 -5.5625 4.15625q-2.1875 4.140625 -2.75 12.828125l14.65625 0q0.1875 -7.375 -1.453125 -12.171875q-1.625 -4.8125 -4.890625 -4.8125zm57.664932 -1.96875q7.09375 0 10.265625 3.640625q1.59375 1.78125 2.25 4.578125q0.65625 2.796875 0.65625 7.5625l0 25.109375q0 3.8125 1.34375 5.265625q1.359375 1.453125 4.625 1.453125l0 1.953125q-9.34375 -0.375 -12.328125 -0.375q-2.796875 0 -12.125 0.375l0 -1.953125q2.796875 0 3.90625 -1.453125q1.125 -1.453125 1.125 -5.265625l0 -29.03125q0 -3.828125 -1.265625 -5.78125q-1.25 -1.96875 -4.515625 -1.96875q-3.828125 0 -6.53125 3.125q-2.703125 3.125 -2.703125 7.703125l0 25.953125q0 3.8125 1.109375 5.265625q1.125 1.453125 3.921875 1.453125l0 1.953125q-8.578125 -0.375 -11.5625 -0.375q-2.8125 0 -12.890625 0.375l0 -1.953125q3.359375 0 4.671875 -1.453125q1.3125 -1.453125 1.3125 -5.265625l0 -29.40625q0 -4.296875 -1.3125 -6.25q-1.3125 -1.96875 -4.671875 -1.96875l0 -1.953125q2.984375 0.28125 5.796875 0.28125q8.296875 0 13.625 -1.3125l0 8.40625q4.203125 -8.6875 15.296875 -8.6875zm50.02231 43.21875q7.65625 0 12.328125 -7.46875l1.671875 0.5625q-1.859375 6.0625 -6.671875 10.3125q-4.796875 4.25 -11.984375 4.25q-9.89064 0 -15.73439 -6.296875q-5.828125 -6.3125 -5.828125 -18.625q0 -12.609375 6.25 -19.28125q6.25 -6.671875 16.60939 -6.671875q17.546875 0 17.546875 20.71875l-26.218765 0q-0.09375 1.40625 -0.09375 4.390625q0 6.15625 1.71875 10.265625q1.7343903 4.109375 4.4843903 5.984375q2.75 1.859375 5.921875 1.859375zm-3.90625 -41.25q-3.359375 0 -5.5625153 4.15625q-2.1875 4.140625 -2.75 12.828125l14.656265 0q0.1875 -7.375 -1.453125 -12.171875q-1.625 -4.8125 -4.890625 -4.8125zm55.055542 -1.96875q4.203125 0 6.34375 2.53125q2.15625 2.515625 2.15625 6.0625q0 3.453125 -2.015625 5.65625q-2.0 2.1875 -5.265625 2.1875q-3.171875 0 -5.046875 -1.625q-1.859375 -1.640625 -1.859375 -4.359375q0 -4.46875 4.109375 -7.28125q-0.375 -0.09375 -1.125 -0.09375q-0.9375 0 -1.5 0.1875q-3.546875 0.5625 -6.015625 4.296875q-2.46875 3.734375 -2.46875 7.65625l0 24.734375q0 4.296875 2.09375 5.984375q2.109375 1.671875 6.671875 1.671875l0 1.953125q-1.296875 0 -2.140625 -0.09375q-9.515625 -0.28125 -12.703125 -0.28125q-2.515625 0 -11.46875 0.28125q-0.75 0.09375 -1.875 0.09375l0 -1.953125q3.359375 0 4.671875 -1.453125q1.3125 -1.453125 1.3125 -5.265625l0 -29.40625q0 -4.296875 -1.3125 -6.25q-1.3125 -1.96875 -4.671875 -1.96875l0 -1.953125q2.984375 0.28125 5.796875 0.28125q8.296875 0 13.625 -1.3125l0 8.6875q1.765625 -4.015625 5.125 -6.484375q3.359375 -2.484375 7.5625 -2.484375zm23.80304 50.21875q-5.96875 0 -8.921875 -3.078125q-2.9375 -3.078125 -2.9375 -8.125q0 -4.203125 2.1875 -6.953125q2.203125 -2.75 5.328125 -4.234375q3.125 -1.5 7.984375 -3.1875q5.125 -1.765625 7.5 -3.203125q2.390625 -1.453125 2.390625 -3.984375l0 -7.28125q0 -3.90625 -1.828125 -6.09375q-1.8125 -2.203125 -5.640625 -2.203125q-4.484375 0 -6.8125 2.234375q2.609375 0.9375 4.046875 2.8125q1.453125 1.859375 1.453125 4.375q0 3.171875 -2.140625 5.046875q-2.140625 1.859375 -5.21875 1.859375q-3.28125 0 -5.046875 -2.046875q-1.765625 -2.0625 -1.765625 -5.140625q0 -2.609375 1.25 -4.421875q1.265625 -1.828125 3.875 -3.421875q2.515625 -1.484375 6.203125 -2.328125q3.6875 -0.84375 8.078125 -0.84375q4.578125 0 7.9375 0.9375q3.359375 0.9375 5.59375 3.171875q2.046875 2.0625 2.75 5.046875q0.703125 2.984375 0.703125 8.109375l0 25.390625q0 2.234375 0.421875 3.171875q0.421875 0.9375 1.625 0.9375q1.40625 0 3.359375 -1.59375l0.9375 1.59375q-4.203125 3.453125 -10.265625 3.453125q-5.125 0 -7.1875 -2.046875q-2.046875 -2.0625 -2.140625 -5.515625q-4.671875 7.5625 -13.71875 7.5625zm7.1875 -5.96875q3.640625 0 6.34375 -3.828125l0 -19.140625q-1.125 1.875 -4.765625 4.109375q-3.640625 2.328125 -5.515625 4.671875q-1.859375 2.328125 -1.859375 6.71875q0 3.828125 1.578125 5.65625q1.59375 1.8125 4.21875 1.8125zm47.781525 -42.9375l11.015625 0l0 1.859375l-11.015625 0l0 37.71875q0 2.796875 0.96875 3.96875q0.984375 1.15625 3.140625 1.15625q4.015625 0 6.34375 -5.59375l1.578125 0.828125q-3.546875 9.625 -12.78125 9.625q-6.15625 0 -9.328125 -3.171875q-1.96875 -1.96875 -2.671875 -4.90625q-0.6875 -2.9375 -0.6875 -8.078125l0 -31.546875l-7.84375 0l0 -1.859375l7.84375 0l0 -12.3125q7.75 0 13.4375 -3.0l0 15.3125zm26.039032 -24.078125q3.921875 0 6.203125 1.921875q2.28125 1.90625 2.28125 5.265625q0 3.359375 -2.28125 5.28125q-2.28125 1.90625 -6.203125 1.90625q-3.921875 0 -6.21875 -1.90625q-2.28125 -1.921875 -2.28125 -5.28125q0 -3.359375 2.28125 -5.265625q2.296875 -1.921875 6.21875 -1.921875zm7.28125 63.65625q0 3.8125 1.34375 5.265625q1.359375 1.453125 4.625 1.453125l0 1.953125q-9.328125 -0.375 -12.40625 -0.375q-2.90625 0 -12.984375 0.375l0 -1.953125q3.359375 0 4.671875 -1.453125q1.3125 -1.453125 1.3125 -5.265625l0 -29.40625q0 -4.296875 -1.3125 -6.25q-1.3125 -1.96875 -4.671875 -1.96875l0 -1.953125q2.984375 0.28125 5.796875 0.28125q8.296875 0 13.625 -1.3125l0 40.609375zm47.493835 -39.296875q4.765625 0 7.1875 -0.28125l0 1.859375q-1.953125 0.5625 -3.5 2.390625q-1.53125 1.8125 -2.9375 5.640625l-13.625 38.546875q-1.03125 -0.09375 -3.078125 -0.09375q-1.953125 0 -2.984375 0.09375l-16.609375 -41.25q-1.3125 -3.171875 -2.671875 -4.203125q-1.34375 -1.03125 -2.75 -1.03125l0 -1.953125q6.53125 0.46875 13.25 0.46875q5.890625 0 12.140625 -0.46875l0 1.953125q-3.171875 0 -4.53125 0.421875q-1.34375 0.421875 -1.34375 2.296875q0 0.734375 0.453125 2.328125l10.640625 28.28125l6.71875 -18.484375q1.5 -4.390625 1.5 -7.5625q0 -6.8125 -6.8125 -7.375l0 -1.859375q4.296875 0.28125 8.953125 0.28125zm35.557617 41.625q7.6562805 0 12.3281555 -7.46875l1.671875 0.5625q-1.859375 6.0625 -6.671875 10.3125q-4.796875 4.25 -11.9844055 4.25q-9.890625 0 -15.734375 -6.296875q-5.828125 -6.3125 -5.828125 -18.625q0 -12.609375 6.25 -19.28125q6.25 -6.671875 16.609375 -6.671875q17.546906 0 17.546906 20.71875l-26.21878 0q-0.09375 1.40625 -0.09375 4.390625q0 6.15625 1.71875 10.265625q1.734375 4.109375 4.484375 5.984375q2.75 1.859375 5.921875 1.859375zm-3.90625 -41.25q-3.359375 0 -5.5625 4.15625q-2.1875 4.140625 -2.75 12.828125l14.6562805 0q0.1875 -7.375 -1.453125 -12.171875q-1.6250305 -4.8125 -4.8906555 -4.8125z" fill-rule="nonzero"/><path fill="#ff0000" d="m75.538055 202.60938q23.59375 0 35.328125 11.796875q11.734375 11.796875 11.734375 34.328125q0 14.53125 -5.734375 25.46875q-5.734375 10.9375 -16.609375 16.875q-10.859375 5.921875 -25.921875 5.921875l-7.734375 -0.140625q-7.468746 -0.265625 -10.937496 -0.265625q-10.921875 0 -16.53125 0.40625l0 -2.671875q4.8125 -0.265625 7.0 -1.0625q2.203125 -0.796875 3.0 -3.0625q0.8125 -2.265625 0.8125 -7.328125l0 -66.140625q0 -5.0625 -0.8125 -7.328125q-0.796875 -2.265625 -3.0 -3.0625q-2.1875 -0.8125 -7.0 -1.078125l0 -2.65625q4.671875 0.390625 12.9375 0.390625l11.328125 -0.125q9.078121 -0.265625 12.140621 -0.265625zm-3.328125 2.390625q-4.140625 0 -6.203125 0.9375q-2.0624962 0.9375 -2.8749962 3.34375q-0.796875 2.390625 -0.796875 7.1875l0 66.671875q0 4.796875 0.796875 7.203125q0.8125 2.390625 2.8749962 3.328125q2.0625 0.921875 6.328125 0.921875q14.140625 0 22.265625 -5.125q8.140625 -5.140625 11.40625 -15.0q3.265625 -9.875 3.265625 -25.203125q0 -15.328125 -3.609375 -24.984375q-3.59375 -9.671875 -11.671875 -14.46875q-8.0625 -4.8125 -21.78125 -4.8125z" fill-rule="nonzero"/><path fill="#ff0000" d="m173.15309 285.79688q-1.6875 5.140625 -6.3125 8.828125q-4.609375 3.6875 -11.140625 3.6875q-6.640625 0 -11.5 -3.03125q-4.84375 -3.046875 -7.40625 -8.5q-2.5625 -5.453125 -2.5625 -12.640625q0 -8.125 2.609375 -14.09375q2.609375 -5.984375 7.359375 -9.203125q4.765625 -3.21875 11.125 -3.21875q8.390625 0 12.921875 5.09375q4.53125 5.078125 4.53125 15.4375l-29.21875 0q-0.28125 2.625 -0.28125 5.984375q0 6.15625 2.0 10.734375q2.015625 4.5625 5.328125 7.046875q3.3125 2.46875 6.953125 2.46875q4.484375 0 7.9375 -2.140625q3.453125 -2.15625 5.78125 -7.203125l1.875 0.75zm-18.203125 -36.390625q-4.390625 0 -7.5625 4.296875q-3.171875 4.28125 -3.921875 12.6875l20.34375 0q0.1875 -7.28125 -2.109375 -12.125q-2.28125 -4.859375 -6.75 -4.859375zm65.427216 36.390625q-1.6875 5.140625 -6.3125 8.828125q-4.609375 3.6875 -11.140625 3.6875q-6.640625 0 -11.5 -3.03125q-4.84375 -3.046875 -7.40625 -8.5q-2.5625 -5.453125 -2.5625 -12.640625q0 -8.125 2.609375 -14.09375q2.609375 -5.984375 7.359375 -9.203125q4.765625 -3.21875 11.125 -3.21875q8.390625 0 12.921875 5.09375q4.53125 5.078125 4.53125 15.4375l-29.21875 0q-0.28125 2.625 -0.28125 5.984375q0 6.15625 2.0 10.734375q2.015625 4.5625 5.328125 7.046875q3.3125 2.46875 6.953125 2.46875q4.484375 0 7.9375 -2.140625q3.453125 -2.15625 5.78125 -7.203125l1.875 0.75zm-18.203125 -36.390625q-4.390625 0 -7.5625 4.296875q-3.171875 4.28125 -3.921875 12.6875l20.34375 0q0.1875 -7.28125 -2.109375 -12.125q-2.28125 -4.859375 -6.75 -4.859375zm54.692856 -1.78125q4.9375 0 8.90625 2.71875q3.96875 2.703125 6.203125 7.9375q2.25 5.21875 2.25 12.5q0 7.1875 -2.296875 13.4375q-2.28125 6.25 -7.09375 10.171875q-4.796875 3.921875 -11.98439 3.921875q-3.546875 0 -6.453125 -1.40625q-2.890625 -1.40625 -4.46875 -3.640625l0 11.953125q0 3.828125 2.234375 5.265625q2.25 1.453125 6.71875 1.453125l0 1.953125l-2.140625 -0.09375q-8.6875 -0.28125 -11.296875 -0.28125q-2.234375 0 -10.078125 0.375l0 -1.953125q3.453125 0 4.796875 -1.265625q1.359375 -1.265625 1.359375 -4.53125l0 -47.03125q0 -4.296875 -1.59375 -6.25q-1.578125 -1.96875 -5.5 -1.96875l0 -1.953125q2.90625 0.28125 5.796875 0.28125q5.875 0 9.703125 -1.3125l0 9.890625q2.046875 -4.84375 5.96875 -7.5q3.921875 -2.671875 8.968765 -2.671875zm-5.0468903 48.53125q13.343765 0 13.343765 -24.078125q0 -21.65625 -10.82814 -21.65625q-4.1875 0 -7.5625 3.046875q-3.359375 3.03125 -4.84375 8.71875l0 28.0q1.3125 2.703125 3.828125 4.34375q2.515625 1.625 6.0625 1.625zm52.824966 -63.359375q-3.359375 0.1875 -4.90625 0.75q-1.53125 0.546875 -2.09375 2.140625q-0.5625 1.578125 -0.5625 5.125l0 46.296875q0 3.546875 0.5625 5.140625q0.5625 1.578125 2.09375 2.09375q1.546875 0.515625 4.90625 0.515625l6.8125 0q5.78125 0 8.8125 -1.625q3.046875 -1.640625 4.4375 -5.28125q1.40625 -3.640625 2.0625 -10.546875l2.140625 0q-0.28125 2.890625 -0.28125 7.640625q0 5.328125 0.65625 11.953125q-6.34375 -0.28125 -21.375 -0.28125q-17.921875 0 -27.0625 0.28125l0 -1.859375q3.359375 -0.1875 4.890625 -0.75q1.546875 -0.5625 2.109375 -2.140625q0.5625 -1.59375 0.5625 -5.140625l0 -46.296875q0 -3.546875 -0.5625 -5.125q-0.5625 -1.59375 -2.109375 -2.140625q-1.53125 -0.5625 -4.890625 -0.75l0 -1.875q3.921875 0.28125 11.9375 0.28125q7.46875 0 11.859375 -0.28125l0 1.875zm70.377014 53.0q-1.6875 5.140625 -6.3125 8.828125q-4.609375 3.6875 -11.140625 3.6875q-6.640625 0 -11.5 -3.03125q-4.84375 -3.046875 -7.40625 -8.5q-2.5625 -5.453125 -2.5625 -12.640625q0 -8.125 2.609375 -14.09375q2.609375 -5.984375 7.359375 -9.203125q4.765625 -3.21875 11.125 -3.21875q8.390625 0 12.921875 5.09375q4.53125 5.078125 4.53125 15.4375l-29.21875 0q-0.28125 2.625 -0.28125 5.984375q0 6.15625 2.0 10.734375q2.015625 4.5625 5.328125 7.046875q3.3125 2.46875 6.953125 2.46875q4.484375 0 7.9375 -2.140625q3.453125 -2.15625 5.78125 -7.203125l1.875 0.75zm-18.203125 -36.390625q-4.390625 0 -7.5625 4.296875q-3.171875 4.28125 -3.921875 12.6875l20.34375 0q0.1875 -7.28125 -2.109375 -12.125q-2.28125 -4.859375 -6.75 -4.859375zm37.427185 48.25q-5.890625 0 -8.734375 -2.9375q-2.84375 -2.9375 -2.84375 -8.171875q0 -4.203125 2.28125 -6.90625q2.296875 -2.703125 5.421875 -4.28125q3.125 -1.59375 8.25 -3.375q5.234375 -1.765625 7.75 -3.25q2.515625 -1.5 2.515625 -4.03125l0 -5.78125q0 -5.40625 -2.28125 -7.40625q-2.28125 -2.015625 -6.390625 -2.015625q-6.53125 0 -9.234375 3.359375q1.859375 0.46875 3.109375 1.96875q1.265625 1.484375 1.265625 3.71875q0 2.328125 -1.5 3.6875q-1.484375 1.359375 -3.8125 1.359375q-2.609375 0 -3.921875 -1.625q-1.3125 -1.640625 -1.3125 -3.984375q0 -2.234375 1.078125 -3.71875q1.078125 -1.5 3.21875 -3.0q2.234375 -1.578125 5.6875 -2.609375q3.453125 -1.03125 7.5625 -1.03125q7.28125 0 11.015625 3.453125q2.328125 2.15625 3.125 5.1875q0.796875 3.03125 0.796875 7.96875l0 25.953125q0 2.328125 0.65625 3.359375q0.65625 1.03125 2.234375 1.03125q1.125 0 2.09375 -0.515625q0.984375 -0.515625 2.109375 -1.453125l1.03125 1.59375q-2.4375 1.859375 -4.171875 2.65625q-1.71875 0.796875 -4.328125 0.796875q-4.484375 0 -6.265625 -2.234375q-1.765625 -2.25 -1.765625 -6.078125q-2.796875 4.671875 -6.4375 6.5q-3.640625 1.8125 -8.203125 1.8125zm4.09375 -3.734375q6.171875 0 10.546875 -7.09375l0 -18.296875q-0.828125 1.3125 -2.328125 2.15625q-1.5 0.828125 -4.578125 2.234375q-3.546875 1.5 -5.734375 2.859375q-2.1875 1.34375 -3.78125 3.671875q-1.578125 2.328125 -1.578125 5.96875q0 4.203125 2.046875 6.359375q2.046875 2.140625 5.40625 2.140625zm58.899353 -46.296875q3.734375 0 6.109375 2.15625q2.375 2.140625 2.375 5.21875q0 2.421875 -1.453125 4.15625q-1.4375 1.71875 -3.859375 1.71875q-2.0625 0 -3.515625 -1.296875q-1.4375 -1.3125 -1.4375 -3.546875q0 -3.078125 3.171875 -5.046875q-0.640625 -0.921875 -1.953125 -0.921875q-3.640625 0 -6.625 2.84375q-2.984375 2.84375 -4.671875 6.953125q-1.671875 4.109375 -1.671875 7.75l0 19.78125q0 4.296875 2.46875 5.984375q2.46875 1.671875 7.421875 1.671875l0 1.953125l-2.234375 -0.09375q-9.53125 -0.28125 -12.140625 -0.28125q-2.421875 0 -11.015625 0.375l0 -1.953125q3.921875 0 5.5 -1.453125q1.59375 -1.453125 1.59375 -5.265625l0 -29.21875q0 -4.296875 -1.59375 -6.25q-1.578125 -1.96875 -5.5 -1.96875l0 -1.953125q2.984375 0.28125 5.796875 0.28125q5.875 0 9.703125 -1.3125l0 11.671875q1.671875 -4.671875 5.359375 -8.3125q3.6875 -3.640625 8.171875 -3.640625zm43.85919 0q6.53125 0 9.890625 3.546875q1.7812805 1.875 2.5156555 4.671875q0.75 2.796875 0.75 7.5625l0 24.921875q0 3.8125 1.578125 5.265625q1.59375 1.453125 5.515625 1.453125l0 1.953125q-8.578125 -0.375 -11.1875305 -0.375q-2.625 0 -10.453125 0.375l0 -1.953125q3.453125 0 4.796875 -1.453125q1.359375 -1.453125 1.359375 -5.265625l0 -26.984375q0 -5.21875 -1.5 -7.96875q-1.484375 -2.765625 -6.0625 -2.765625q-3.828125 0 -6.8125 2.25q-2.984375 2.234375 -4.625 6.109375q-1.625 3.875 -1.625 8.640625l0 20.71875q0 3.8125 1.34375 5.265625q1.359375 1.453125 4.8125 1.453125l0 1.953125q-7.84375 -0.375 -10.453125 -0.375q-2.609375 0 -11.203125 0.375l0 -1.953125q3.921875 0 5.5 -1.453125q1.59375 -1.453125 1.59375 -5.265625l0 -29.21875q0 -4.296875 -1.59375 -6.25q-1.578125 -1.96875 -5.5 -1.96875l0 -1.953125q2.984375 0.28125 5.796875 0.28125q5.875 0 9.703125 -1.3125l0 11.015625q2.328125 -5.96875 6.484375 -8.625q4.15625 -2.671875 9.375 -2.671875zm34.99826 -22.015625q2.421875 0 4.1875 1.78125q1.78125 1.765625 1.78125 4.1875q0 2.421875 -1.78125 4.203125q-1.765625 1.765625 -4.1875 1.765625q-2.4375 0 -4.21875 -1.765625q-1.765625 -1.78125 -1.765625 -4.203125q0 -2.421875 1.765625 -4.1875q1.78125 -1.78125 4.21875 -1.78125zm4.859375 62.71875q0 3.8125 1.578125 5.265625q1.59375 1.453125 5.515625 1.453125l0 1.953125q-8.59375 -0.375 -11.296875 -0.375q-2.703125 0 -11.296875 0.375l0 -1.953125q3.921875 0 5.5 -1.453125q1.59375 -1.453125 1.59375 -5.265625l0 -29.21875q0 -4.296875 -1.59375 -6.25q-1.578125 -1.96875 -5.5 -1.96875l0 -1.953125q2.984375 0.28125 5.796875 0.28125q5.875 0 9.703125 -1.3125l0 40.421875zm43.20453 -40.703125q6.53125 0 9.890625 3.546875q1.78125 1.875 2.515625 4.671875q0.75 2.796875 0.75 7.5625l0 24.921875q0 3.8125 1.578125 5.265625q1.59375 1.453125 5.515625 1.453125l0 1.953125q-8.578125 -0.375 -11.1875 -0.375q-2.625 0 -10.453125 0.375l0 -1.953125q3.453125 0 4.796875 -1.453125q1.359375 -1.453125 1.359375 -5.265625l0 -26.984375q0 -5.21875 -1.5 -7.96875q-1.484375 -2.765625 -6.0625 -2.765625q-3.828125 0 -6.8125 2.25q-2.984375 2.234375 -4.625 6.109375q-1.625 3.875 -1.625 8.640625l0 20.71875q0 3.8125 1.34375 5.265625q1.359375 1.453125 4.8125 1.453125l0 1.953125q-7.84375 -0.375 -10.453125 -0.375q-2.609375 0 -11.203125 0.375l0 -1.953125q3.921875 0 5.5 -1.453125q1.59375 -1.453125 1.59375 -5.265625l0 -29.21875q0 -4.296875 -1.59375 -6.25q-1.578125 -1.96875 -5.5 -1.96875l0 -1.953125q2.984375 0.28125 5.796875 0.28125q5.875 0 9.703125 -1.3125l0 11.015625q2.328125 -5.96875 6.484375 -8.625q4.15625 -2.671875 9.375 -2.671875zm64.674255 9.703125q-1.671875 0 -2.84375 -1.109375q-1.171875 -1.125 -1.171875 -3.265625q0 -1.875 0.9375 -4.296875q-2.421875 1.03125 -3.828125 2.296875q-1.390625 1.25 -2.515625 3.109375q2.140625 3.265625 2.140625 8.3125q0 7.375 -4.484375 11.0625q-4.46875 3.6875 -11.84375 3.6875l-0.09375 0q-3.078125 1.765625 -4.671875 3.265625q-1.578125 1.484375 -1.578125 3.359375q0 2.984375 4.484375 2.984375l11.65625 0q6.34375 0 10.5 2.75q4.15625 2.75 4.15625 8.265625q0 4.46875 -2.890625 8.296875q-2.890625 3.828125 -8.5 6.15625q-5.59375 2.34375 -13.53125 2.34375q-8.109375 0 -13.578125 -2.484375q-5.453125 -2.46875 -5.453125 -7.3125q0 -3.171875 2.5625 -5.515625q2.5625 -2.328125 7.140625 -3.640625l0.5625 1.5q-2.0625 0.65625 -3.28125 2.609375q-1.203125 1.96875 -1.203125 4.390625q0 4.296875 3.875 6.578125q3.875 2.28125 10.40625 2.28125q7.1875 0 12.3125 -2.75q5.140625 -2.75 5.140625 -8.53125q0 -3.359375 -2.390625 -5.21875q-2.375 -1.875 -8.4375 -1.875l-6.90625 0q-5.5 0 -8.8125 -1.390625q-3.3125 -1.40625 -3.3125 -5.609375q0 -2.890625 2.09375 -5.5q2.09375 -2.625 6.953125 -5.140625q-6.15625 -0.65625 -9.84375 -4.296875q-3.6875 -3.640625 -3.6875 -10.265625q0 -7.375 4.46875 -11.0625q4.484375 -3.6875 11.859375 -3.6875q8.78125 0 12.96875 4.859375q1.78125 -2.515625 4.484375 -4.140625q2.703125 -1.640625 5.421875 -1.640625q2.421875 0 3.90625 1.40625q1.5 1.390625 1.5 4.0q0 2.609375 -1.453125 3.921875q-1.4375 1.296875 -3.21875 1.296875zm-23.609375 18.109375q3.734375 0 5.640625 -2.9375q1.921875 -2.9375 1.921875 -10.125q0 -7.1875 -1.921875 -10.125q-1.90625 -2.9375 -5.640625 -2.9375q-3.734375 0 -5.65625 2.9375q-1.90625 2.9375 -1.90625 10.125q0 7.1875 1.90625 10.125q1.921875 2.9375 5.65625 2.9375z" fill-rule="nonzero"/></g></svg>